# xmcd
#
# Track frame offsets:
#	150
#	15672
#	31427
#	48287
#	63818
#	80186
#	92906
#	111207
#
# Disc length: 1731 seconds
#
# Revision: 5
# Processed by: cddbd v1.5.2PL0 Copyright (c) Steve Scherf et al.
# Submitted via: audiograbber 1.83.01
#
DISCID=6106c108
DTITLE=Miley Cyrus - DIS191102
DYEAR=2007
DGENRE=Karaoke
TTITLE0=Miley Cyrus - See You Again
TTITLE1=Miley Cyrus - Start All Over
TTITLE2=Miley Cyrus - G.N.O. (Girls Night Out)
TTITLE3=Miley Cyrus - Let's Dance
TTITLE4=Miley Cyrus - East Northumberland High
TTITLE5=Miley Cyrus - Right Here
TTITLE6=Miley Cyrus - As I Am
TTITLE7=Miley Cyrus - I Miss You
EXTD=
EXTT0=
EXTT1=
EXTT2=
EXTT3=
EXTT4=
EXTT5=
EXTT6=
EXTT7=
PLAYORDER=
